<?xml version="1.0" encoding="utf-8"?>
<!-- Generator: Adobe Illustrator 15.1.0, SVG Export Plug-In . SVG Version: 6.00 Build 0)  -->
<!DOCTYPE svg PUBLIC "-//W3C//DTD SVG 1.1//EN" "http://www.w3.org/Graphics/SVG/1.1/DTD/svg11.dtd">
<svg version="1.1" id="Layer_1" xmlns="http://www.w3.org/2000/svg" xmlns:xlink="http://www.w3.org/1999/xlink" x="0px" y="0px"
	 width="850.39px" height="566.93px" viewBox="0 0 850.39 566.93" enable-background="new 0 0 850.39 566.93" xml:space="preserve">
<text transform="matrix(1 0 0 1 531.3555 354.5625)" fill="#878787" font-family="'Arial-BoldMT'" font-size="18.4396">ALTERNATIVE MEDIA</text>
<text transform="matrix(0.8869 0 0 1 149.8643 416.9404)" fill="#E30613" font-family="'Arial-BoldMT'" font-size="93.8585">AMBIENT</text>
<text transform="matrix(0.7547 0 0 1 757.1045 344.8418)" fill="#878787" font-family="'Arial-BoldMT'" font-size="12.1779">ATTENTION</text>
<text transform="matrix(0 -1 1 0 42.7261 489.8389)" fill="#878787" font-family="'Arial-BoldMT'" font-size="19.5055">ADVERTISING</text>
<text transform="matrix(0 -1 1 0 319.7661 347.9727)" fill="#878787" font-family="'Arial-BoldMT'" font-size="44.7633">EFFECTIVE</text>
<text transform="matrix(1 0 0 1 198.5928 223.4512)" fill="#E30613" font-family="'Arial-BoldMT'" font-size="23.1036">MEDIA</text>
<text transform="matrix(0 -1 1 0 531.3555 480.8467)" fill="#878787" font-family="'Arial-BoldMT'" font-size="16.1836">CONSUMERS</text>
<text transform="matrix(1 0 0 1 172.1328 448.8496)" fill="#878787" font-family="'Arial-BoldMT'" font-size="31.7675">MESSAGE</text>
<text transform="matrix(1 0 0 1 43.7344 290.8652)" fill="#878787" font-family="'Arial-BoldMT'" font-size="26.4906">COMMUNICATION</text>
<text transform="matrix(1 0 0 1 19.8438 346.8965)" fill="#878787" font-family="'Arial-BoldMT'" font-size="18.6328">ENVIRONMENT</text>
<text transform="matrix(0 -0.6667 1 0 136.6055 448.8496)" fill="#878787" font-family="'Arial-BoldMT'" font-size="32.1257">DEMAND</text>
<text transform="matrix(1 0 0 1 548.6006 429.875)" fill="#878787" font-family="'Arial-BoldMT'" font-size="37.6407">PERSUASIVE</text>
<text transform="matrix(1 0 0 1 274.9668 493.4551)" fill="#878787" font-family="'Arial-BoldMT'" font-size="57.4618">TARGET</text>
<text transform="matrix(0 -1 1 0 107.1294 457.1826)" fill="#878787" font-family="'Arial-BoldMT'" font-size="18.0441">VERSATILE</text>
<text transform="matrix(1 0 0 1 366.8027 332.8535)" fill="#878787" font-family="'Arial-BoldMT'" font-size="47.6513">BRAND</text>
<text transform="matrix(1 0 0 1 602.9512 393.1523)" fill="#878787" font-family="'Arial-BoldMT'" font-size="23.1036">AUDIENCE</text>
<text transform="matrix(0.726 0 0 1 594.2227 326.0859)" fill="#878787" font-family="'Arial-BoldMT'" font-size="31.8213">ACTIVITIES</text>
<text transform="matrix(0 -1 1 0 186.2007 234.1533)" fill="#878787" font-family="'Arial-BoldMT'" font-size="23.1036">MAINTAIN</text>
<text transform="matrix(0 -1 1 0 787.0859 326.0859)" fill="#878787" font-family="'Arial-BoldMT'" font-size="23.1036">INTELLIGENT</text>
<text transform="matrix(1 0 0 1 60.9854 489.8398)" fill="#878787" font-family="'Arial-BoldMT'" font-size="33.2115">PROJECTION</text>
<text transform="matrix(0.6872 0 0 1 602.9521 285.041)" fill="#878787" font-family="'Arial-BoldMT'" font-size="23.1036">EXPERIENTIAL</text>
<text transform="matrix(1 0 0 1 41.1602 328.625)" fill="#878787" font-family="'Arial-BoldMT'" font-size="33.461">TECHNOLOGY</text>
<text transform="matrix(0 -1 1 0 744.6484 393.1523)" fill="#878787" font-family="'Arial-BoldMT'" font-size="23.1036">MANIFESTATION</text>
<text transform="matrix(1 0 0 1 366.8027 223.4512)" fill="#878787" font-family="'Arial-BoldMT'" font-size="51.3433">GUERRILLA</text>
<text transform="matrix(1 0 0 1 577.1816 253.1758)" fill="#878787" font-family="'Arial-BoldMT'" font-size="27.7562">EXTREME</text>
<text transform="matrix(0 -1 1 0 567.6211 335.4307)" fill="#878787" font-family="'Arial-BoldMT'" font-size="19.7916">STAFFING</text>
<text transform="matrix(1 0 0 1 674.6396 200.0361)" fill="#878787" font-family="'Arial-BoldMT'" font-size="15.8837">DOMINANT</text>
<text transform="matrix(1 0 0 1 591.6455 180.6279)" fill="#878787" font-family="'Arial-BoldMT'" font-size="23.1036">RELATIONSHIP</text>
<text transform="matrix(0 -1 1 0 82.4722 457.1826)" fill="#878787" font-family="'Arial-BoldMT'" font-size="7.8562">ROAD SHOW PROMOTION</text>
<text transform="matrix(0 -1 1 0 355.9233 328.625)" fill="#878787" font-family="'Arial-BoldMT'" font-size="23.1036">LONG TERM</text>
<text transform="matrix(1 0 0 1 542.9316 386.1367)" fill="#878787" font-family="'Arial-BoldMT'" font-size="15.2185">FOCUS</text>
<text transform="matrix(0 -1 1 0 591.6445 325.1934)" fill="#878787" font-family="'Arial-BoldMT'" font-size="10.3325">PLATFORMS</text>
<text transform="matrix(1 0 0 1 548.6006 473.0313)" fill="#878787" font-family="'Arial-BoldMT'" font-size="38.9343">VALUE</text>
<text transform="matrix(1 0 0 1 330.7266 168.8481)" fill="#878787" font-family="'Arial-BoldMT'" font-size="31.7675">EVOLVE</text>
<text transform="matrix(1 0 0 1 468.5967 172.3848)" fill="#878787" font-family="'Arial-BoldMT'" font-size="23.1036">BUILDING</text>
<text transform="matrix(1 0 0 1 338.2207 448.8496)" fill="#878787" font-family="'Arial-BoldMT'" font-size="23.1036">SYNCHRONISE</text>
<text transform="matrix(1 0 0 1 129.9766 262.8857)" fill="#878787" font-family="'Arial-BoldMT'" font-size="38.6709">EXCITE</text>
<text transform="matrix(1 0 0 1 366.8027 285.041)" fill="#878787" font-family="'Arial-BoldMT'" font-size="31.787">RESEARCH</text>
<text transform="matrix(0 -1 1 0 126.6958 266.4443)" fill="#878787" font-family="'Arial-BoldMT'" font-size="23.1036">RETAIL</text>
<text transform="matrix(1 0 0 1 448.7988 249.0361)" fill="#878787" font-family="'Arial-BoldMT'" font-size="23.1036">DIGITAL</text>
<text transform="matrix(1 0 0 1 366.8027 249.0361)" fill="#878787" font-family="'Arial-BoldMT'" font-size="23.1036">PRINT</text>
</svg>
